<svg width="24" height="25" viewBox="0 0 24 25" fill="none" xmlns="http://www.w3.org/2000/svg">
<path d="M1 2.98889H2.65424C3.13263 2.98889 3.37183 2.98889 3.56628 3.07563C3.73771 3.1521 3.88415 3.27527 3.98886 3.43106C4.10763 3.60778 4.14862 3.84343 4.23058 4.31475L4.6087 6.48889M4.6087 6.48889L5.49173 11.5663C5.67091 12.5966 5.7605 13.1117 6.02583 13.4828C6.25945 13.8096 6.58606 14.0584 6.96311 14.1969C7.39133 14.3542 7.91176 14.3039 8.95264 14.2032L18.614 13.2682C19.6298 13.1699 20.1378 13.1207 20.5221 12.8922C20.8653 12.6881 21.1395 12.3861 21.3095 12.0249C21.5 11.6203 21.5 11.11 21.5 10.0894V10.0894C21.5 9.00471 21.5 8.46237 21.2922 8.04283C21.1068 7.6686 20.809 7.36179 20.4404 7.16543C20.0272 6.94529 19.4851 6.92925 18.4009 6.89715L4.6087 6.48889Z" stroke="#262F56" stroke-width="1.8" stroke-linecap="round" stroke-linejoin="round"/>
<circle cx="8.5" cy="19.4889" r="2" stroke="#262F56" stroke-width="1.8"/>
<circle cx="18" cy="19.4889" r="2" stroke="#262F56" stroke-width="1.8"/>
</svg>
